# xmcd
#
# Track frame offsets:
#  150
#  13185
#  27690
#  41007
#  57941
#  71521
#  84462
#  96014
#  111611
#  121892
#  140553
#  159152
#  173716
#  187123
#
# Disc length: 2638 seconds
#
# Revision: 2
# Processed by: cddbd v1.5.1PL2 Copyright (c) Steve Scherf et al.
# Submitted via: Collectorz.com_Music_Collector 6.11
#
DISCID=c30a4c0e
DTITLE=Various Artist - Hucklebuck Shoes And Wedding Dress Blues [CD2)
DYEAR=2002
DGENRE=Irish
TTITLE0=Boyer, Brendan and The Royal Showband - The Same Old Song
TTITLE1=Hurley, Red - Broken Promises
TTITLE2=Quinn, Brendan - Behind Closed Doors
TTITLE3=Dunphy, Sean and The Hoedowners - Two Loves
TTITLE4=Cotton Mill Boys - Judy
TTITLE5=Rock, Dickie - Till
TTITLE6=McEvoy, Johnny - Muirsheen Durkin
TTITLE7=O'Brien, Brendan - Beautiful Sunday
TTITLE8=Freshmen, The - Yesterday
TTITLE9=Curtin, D J - Noreen Bawn
TTITLE10=Bowyer, Brendan - You Gave Me a Mountain
TTITLE11=Dunphy, Sean and The Hoedowners - The Lonely Woods of Upton
TTITLE12=Hurley, Red - Isadora
TTITLE13=O'Brien, Brendan - Rave on
EXTD=
EXTT0=
EXTT1=
EXTT2=
EXTT3=
EXTT4=
EXTT5=
EXTT6=
EXTT7=
EXTT8=
EXTT9=
EXTT10=
EXTT11=
EXTT12=
EXTT13=
PLAYORDER=
